<svg width="41" height="41" viewBox="0 0 41 41" fill="none" xmlns="http://www.w3.org/2000/svg">
<rect x="0.5" y="0.400024" width="40" height="40" rx="20" fill="#4C4AA1"/>
<path d="M11.7247 22.9385L11.7247 15.8675C11.7247 14.7644 12.6228 13.8664 13.7258 13.8664L25.6194 13.8664L23.6183 15.8675L13.7117 15.8745L13.7188 22.9385L15.5502 21.1071L16.9644 22.5213L12.7218 26.764L8.47911 22.5213L9.89333 21.1071L11.7247 22.9385ZM31.1065 19.6929L32.5207 18.2787L28.2781 14.0361L24.0355 18.2787L25.4497 19.6929L27.2811 17.8615L27.2882 24.9255L17.3816 24.9326L15.3805 26.9337L27.274 26.9337C28.3771 26.9337 29.2751 26.0357 29.2751 24.9326L29.2751 17.8615L31.1065 19.6929Z" fill="white"/>
</svg>
